<?xml version="1.0" encoding="UTF-8" standalone="no"?>
<svg
   xmlns:dc="http://purl.org/dc/elements/1.1/"
   xmlns:cc="http://creativecommons.org/ns#"
   xmlns:rdf="http://www.w3.org/1999/02/22-rdf-syntax-ns#"
   xmlns:svg="http://www.w3.org/2000/svg"
   xmlns="http://www.w3.org/2000/svg"
   xmlns:sodipodi="http://sodipodi.sourceforge.net/DTD/sodipodi-0.dtd"
   xmlns:inkscape="http://www.inkscape.org/namespaces/inkscape"
   width="90"
   height="196"
   viewBox="0 0 72 156.8"
   version="1.1"
   id="svg3444"
   inkscape:version="0.91 r13725"
   sodipodi:docname="trada-logo-long.svg">
  <metadata
     id="metadata3512">
    <rdf:RDF>
      <cc:Work
         rdf:about="">
        <dc:format>image/svg+xml</dc:format>
        <dc:type
           rdf:resource="http://purl.org/dc/dcmitype/StillImage" />
        <dc:title />
      </cc:Work>
    </rdf:RDF>
  </metadata>
  <defs
     id="defs3510" />
  <sodipodi:namedview
     pagecolor="#ffffff"
     bordercolor="#666666"
     borderopacity="1"
     objecttolerance="10"
     gridtolerance="10"
     guidetolerance="10"
     inkscape:pageopacity="0.63137255"
     inkscape:pageshadow="2"
     inkscape:window-width="1079"
     inkscape:window-height="720"
     id="namedview3508"
     showgrid="false"
     fit-margin-top="0"
     fit-margin-left="0"
     fit-margin-right="0"
     fit-margin-bottom="0"
     units="px"
     inkscape:zoom="1.0074671"
     inkscape:cx="-224.13679"
     inkscape:cy="41.670218"
     inkscape:window-x="189"
     inkscape:window-y="42"
     inkscape:window-maximized="0"
     inkscape:current-layer="svg3444" />
  <g
     id="g3870"
     transform="matrix(0.74168612,0,0,0.73097442,-9.233933e-7,-105.89047)"
     style="fill:#008000">
    <path
       inkscape:connector-curvature="0"
       style="fill:#008000"
       id="path3448"
       d="m 56.279295,144.86207 c 0.852289,1.40662 2.272769,2.68159 2.272769,4.44853 0.1663,3.18742 -2.224265,5.84822 -2.141115,9.02178 0.180159,1.55906 0.706776,3.04191 1.17103,4.53168 -2.362847,-1.87088 -4.226796,-4.91278 -3.007261,-7.98241 1.247252,-3.19435 2.43214,-6.52035 1.704577,-10.01958 z" />
    <path
       inkscape:connector-curvature="0"
       style="fill:#008000"
       id="path3450"
       d="m 59.127185,158.39474 c 0.658272,-2.34899 1.385835,-4.69105 1.441269,-7.15783 0.519688,1.40662 1.649143,2.88946 0.886935,4.42774 -0.956227,2.23812 -1.274969,4.63562 -0.450397,6.97075 -0.831501,-1.27497 -2.362848,-2.54994 -1.877807,-4.24066 z" />
    <path
       inkscape:connector-curvature="0"
       style="fill:#008000"
       id="path3452"
       d="m 51.657536,151.32006 c 0.609768,1.35811 1.642215,2.84096 0.880005,4.36538 -0.907722,2.23119 -1.274967,4.60097 -0.616696,6.97074 -0.665201,-1.14331 -1.607569,-2.21733 -1.829302,-3.56159 0.519688,-2.59844 1.600639,-5.07216 1.565993,-7.77453 z" />
    <path
       inkscape:connector-curvature="0"
       style="fill:#008000"
       id="path3454"
       d="m 28.507166,160.33491 c 0.616697,1.32347 1.808514,2.67466 1.108667,4.21294 -0.873076,2.41828 -1.41355,4.93357 -0.679059,7.47658 -0.990871,-1.34426 -2.529147,-2.8271 -1.92631,-4.67719 0.699847,-2.29356 1.392765,-4.60098 1.496702,-7.01233 z" />
    <path
       inkscape:connector-curvature="0"
       style="fill:#008000"
       id="path3456"
       d="m 43.397961,166.00298 c -0.408821,-1.28883 0.817643,-2.16191 1.995601,-2.03718 6.506495,-0.097 13.012989,0.0208 19.519484,-0.0485 1.143314,0.0831 2.480644,-0.18016 3.395295,0.69292 0.124725,0.87307 0.221734,1.74615 0.270238,2.62615 1.600639,0.13859 3.984275,-0.39496 4.663334,1.55214 0.228662,2.45985 -0.200947,4.989 -0.949298,7.33106 -0.949296,2.03025 -3.464586,1.67686 -5.307746,1.82931 -0.429608,1.78772 -0.1663,4.04663 -1.392764,5.45325 -3.208208,0.71371 -6.575786,-0.0416 -9.839427,0.37418 -2.51529,1.85702 -4.462388,4.37231 -6.783661,6.45799 0.04157,-2.12033 0.09007,-4.24065 0.117801,-6.36098 -1.330401,-0.27024 -3.533878,0.007 -3.540808,-1.95403 -0.810713,-5.28696 -1.531347,-10.60163 -2.148043,-15.91631 z" />
    <path
       inkscape:connector-curvature="0"
       style="fill:#008000"
       id="path3458"
       d="m 25.4514,164.38848 c 1.233393,2.39749 -0.256379,4.989 -0.08315,7.50429 -1.84316,-2.30741 -0.360317,-5.01672 0.08315,-7.50429 z" />
    <path
       inkscape:connector-curvature="0"
       style="fill:#008000"
       id="path3460"
       d="m 30.73836,165.76738 c -0.117801,-0.54047 -0.138584,-1.09481 -0.09007,-1.64221 2.161901,2.25198 -0.06929,5.19688 0.353388,7.85075 -1.462056,-1.91938 -0.769138,-4.11593 -0.263309,-6.20854 z" />
    <path
       inkscape:connector-curvature="0"
       style="fill:#008000"
       id="path3462"
       d="m 67.241248,175.70382 c 0.297955,-2.07182 0.415751,-4.17829 0.963155,-6.19468 0.997802,-0.0762 1.995602,-0.11087 3.000333,-0.1178 -0.200947,2.06489 -0.491972,4.12979 -0.84536,6.17389 -1.039377,0.0554 -2.078752,0.097 -3.118128,0.13859 z" />
    <path
       inkscape:connector-curvature="0"
       style="fill:#008000"
       id="path3464"
       d="m 20.018928,173.03609 c 6.146178,-0.0208 12.299284,-0.0762 18.45239,0.0416 -0.242521,4.78113 -1.00473,9.52761 -1.822372,14.24638 -0.914652,0.0693 -1.836232,0.13858 -2.750883,0.2148 0.0485,1.54521 0.09007,3.09042 0.138583,4.63562 -1.718434,-1.5452 -3.208206,-3.42301 -5.231526,-4.58018 -2.321273,-0.48504 -4.725696,-0.17323 -7.081615,-0.20788 -0.263308,-1.37197 -0.512759,-2.75088 -0.762209,-4.12286 -1.42741,-0.22173 -3.526949,0.10394 -4.053567,-1.66993 -0.374176,-1.80851 -1.080951,-3.83876 -0.249451,-5.61263 1.039377,-0.42961 2.168832,-0.51969 3.263641,-0.70677 0.02772,-0.74143 0.06236,-1.48978 0.09701,-2.23813 z" />
    <path
       inkscape:connector-curvature="0"
       style="fill:#008000"
       id="path3466"
       d="m 17.90553,177.38068 c 0.533547,-0.19402 1.600639,-0.57512 2.134186,-0.76914 0.277166,1.71844 0.547405,3.42994 0.817642,5.15531 -0.886934,-0.0901 -1.773868,-0.18016 -2.653873,-0.27024 -0.124726,-1.37198 -0.318743,-2.73702 -0.297955,-4.11593 z" />
    <text
       sodipodi:linespacing="100%"
       id="text3514"
       y="210.88972"
       x="48.768124"
       style="font-style:normal;font-variant:normal;font-weight:bold;font-stretch:normal;font-size:17.3229351px;line-height:100%;font-family:Noteworthy;-inkscape-font-specification:'Noteworthy, Bold';text-align:center;letter-spacing:0px;word-spacing:0px;writing-mode:lr-tb;text-anchor:middle;fill:#008000;fill-opacity:1;stroke:none;stroke-width:1px;stroke-linecap:butt;stroke-linejoin:miter;stroke-opacity:1"
       xml:space="preserve"><tspan
         y="210.88972"
         x="48.768124"
         id="tspan3518"
         sodipodi:role="line">tràđáhacking</tspan></text>
  </g>
  <g
     id="g3884"
     transform="matrix(0.74168612,0,0,0.73097442,-9.233933e-7,-1.0904678)"
     style="fill:#ffffff">
    <path
       d="m 56.279295,144.86207 c 0.852289,1.40662 2.272769,2.68159 2.272769,4.44853 0.1663,3.18742 -2.224265,5.84822 -2.141115,9.02178 0.180159,1.55906 0.706776,3.04191 1.17103,4.53168 -2.362847,-1.87088 -4.226796,-4.91278 -3.007261,-7.98241 1.247252,-3.19435 2.43214,-6.52035 1.704577,-10.01958 z"
       id="path3886"
       style="fill:#ffffff"
       inkscape:connector-curvature="0" />
    <path
       d="m 59.127185,158.39474 c 0.658272,-2.34899 1.385835,-4.69105 1.441269,-7.15783 0.519688,1.40662 1.649143,2.88946 0.886935,4.42774 -0.956227,2.23812 -1.274969,4.63562 -0.450397,6.97075 -0.831501,-1.27497 -2.362848,-2.54994 -1.877807,-4.24066 z"
       id="path3888"
       style="fill:#ffffff"
       inkscape:connector-curvature="0" />
    <path
       d="m 51.657536,151.32006 c 0.609768,1.35811 1.642215,2.84096 0.880005,4.36538 -0.907722,2.23119 -1.274967,4.60097 -0.616696,6.97074 -0.665201,-1.14331 -1.607569,-2.21733 -1.829302,-3.56159 0.519688,-2.59844 1.600639,-5.07216 1.565993,-7.77453 z"
       id="path3890"
       style="fill:#ffffff"
       inkscape:connector-curvature="0" />
    <path
       d="m 28.507166,160.33491 c 0.616697,1.32347 1.808514,2.67466 1.108667,4.21294 -0.873076,2.41828 -1.41355,4.93357 -0.679059,7.47658 -0.990871,-1.34426 -2.529147,-2.8271 -1.92631,-4.67719 0.699847,-2.29356 1.392765,-4.60098 1.496702,-7.01233 z"
       id="path3892"
       style="fill:#ffffff"
       inkscape:connector-curvature="0" />
    <path
       d="m 43.397961,166.00298 c -0.408821,-1.28883 0.817643,-2.16191 1.995601,-2.03718 6.506495,-0.097 13.012989,0.0208 19.519484,-0.0485 1.143314,0.0831 2.480644,-0.18016 3.395295,0.69292 0.124725,0.87307 0.221734,1.74615 0.270238,2.62615 1.600639,0.13859 3.984275,-0.39496 4.663334,1.55214 0.228662,2.45985 -0.200947,4.989 -0.949298,7.33106 -0.949296,2.03025 -3.464586,1.67686 -5.307746,1.82931 -0.429608,1.78772 -0.1663,4.04663 -1.392764,5.45325 -3.208208,0.71371 -6.575786,-0.0416 -9.839427,0.37418 -2.51529,1.85702 -4.462388,4.37231 -6.783661,6.45799 0.04157,-2.12033 0.09007,-4.24065 0.117801,-6.36098 -1.330401,-0.27024 -3.533878,0.007 -3.540808,-1.95403 -0.810713,-5.28696 -1.531347,-10.60163 -2.148043,-15.91631 z"
       id="path3894"
       style="fill:#ffffff"
       inkscape:connector-curvature="0" />
    <path
       d="m 25.4514,164.38848 c 1.233393,2.39749 -0.256379,4.989 -0.08315,7.50429 -1.84316,-2.30741 -0.360317,-5.01672 0.08315,-7.50429 z"
       id="path3896"
       style="fill:#ffffff"
       inkscape:connector-curvature="0" />
    <path
       d="m 30.73836,165.76738 c -0.117801,-0.54047 -0.138584,-1.09481 -0.09007,-1.64221 2.161901,2.25198 -0.06929,5.19688 0.353388,7.85075 -1.462056,-1.91938 -0.769138,-4.11593 -0.263309,-6.20854 z"
       id="path3898"
       style="fill:#ffffff"
       inkscape:connector-curvature="0" />
    <path
       d="m 67.241248,175.70382 c 0.297955,-2.07182 0.415751,-4.17829 0.963155,-6.19468 0.997802,-0.0762 1.995602,-0.11087 3.000333,-0.1178 -0.200947,2.06489 -0.491972,4.12979 -0.84536,6.17389 -1.039377,0.0554 -2.078752,0.097 -3.118128,0.13859 z"
       id="path3900"
       style="fill:#ffffff"
       inkscape:connector-curvature="0" />
    <path
       d="m 20.018928,173.03609 c 6.146178,-0.0208 12.299284,-0.0762 18.45239,0.0416 -0.242521,4.78113 -1.00473,9.52761 -1.822372,14.24638 -0.914652,0.0693 -1.836232,0.13858 -2.750883,0.2148 0.0485,1.54521 0.09007,3.09042 0.138583,4.63562 -1.718434,-1.5452 -3.208206,-3.42301 -5.231526,-4.58018 -2.321273,-0.48504 -4.725696,-0.17323 -7.081615,-0.20788 -0.263308,-1.37197 -0.512759,-2.75088 -0.762209,-4.12286 -1.42741,-0.22173 -3.526949,0.10394 -4.053567,-1.66993 -0.374176,-1.80851 -1.080951,-3.83876 -0.249451,-5.61263 1.039377,-0.42961 2.168832,-0.51969 3.263641,-0.70677 0.02772,-0.74143 0.06236,-1.48978 0.09701,-2.23813 z"
       id="path3902"
       style="fill:#ffffff"
       inkscape:connector-curvature="0" />
    <path
       d="m 17.90553,177.38068 c 0.533547,-0.19402 1.600639,-0.57512 2.134186,-0.76914 0.277166,1.71844 0.547405,3.42994 0.817642,5.15531 -0.886934,-0.0901 -1.773868,-0.18016 -2.653873,-0.27024 -0.124726,-1.37198 -0.318743,-2.73702 -0.297955,-4.11593 z"
       id="path3904"
       style="fill:#ffffff"
       inkscape:connector-curvature="0" />
    <text
       xml:space="preserve"
       style="font-style:normal;font-variant:normal;font-weight:bold;font-stretch:normal;font-size:17.3229351px;line-height:100%;font-family:Noteworthy;-inkscape-font-specification:'Noteworthy, Bold';text-align:center;letter-spacing:0px;word-spacing:0px;writing-mode:lr-tb;text-anchor:middle;fill:#ffffff;fill-opacity:1;stroke:none;stroke-width:1px;stroke-linecap:butt;stroke-linejoin:miter;stroke-opacity:1"
       x="48.768124"
       y="210.88972"
       id="text3906"
       sodipodi:linespacing="100%"><tspan
         sodipodi:role="line"
         id="tspan3908"
         x="48.768124"
         y="210.88972">tràđáhacking</tspan></text>
  </g>
  <g
     id="g3922"
     transform="matrix(0.74168612,0,0,0.73097442,-9.233933e-7,-53.890468)"
     style="fill:#666666">
    <path
       d="m 56.279295,144.86207 c 0.852289,1.40662 2.272769,2.68159 2.272769,4.44853 0.1663,3.18742 -2.224265,5.84822 -2.141115,9.02178 0.180159,1.55906 0.706776,3.04191 1.17103,4.53168 -2.362847,-1.87088 -4.226796,-4.91278 -3.007261,-7.98241 1.247252,-3.19435 2.43214,-6.52035 1.704577,-10.01958 z"
       id="path3924"
       style="fill:#666666"
       inkscape:connector-curvature="0" />
    <path
       d="m 59.127185,158.39474 c 0.658272,-2.34899 1.385835,-4.69105 1.441269,-7.15783 0.519688,1.40662 1.649143,2.88946 0.886935,4.42774 -0.956227,2.23812 -1.274969,4.63562 -0.450397,6.97075 -0.831501,-1.27497 -2.362848,-2.54994 -1.877807,-4.24066 z"
       id="path3926"
       style="fill:#666666"
       inkscape:connector-curvature="0" />
    <path
       d="m 51.657536,151.32006 c 0.609768,1.35811 1.642215,2.84096 0.880005,4.36538 -0.907722,2.23119 -1.274967,4.60097 -0.616696,6.97074 -0.665201,-1.14331 -1.607569,-2.21733 -1.829302,-3.56159 0.519688,-2.59844 1.600639,-5.07216 1.565993,-7.77453 z"
       id="path3928"
       style="fill:#666666"
       inkscape:connector-curvature="0" />
    <path
       d="m 28.507166,160.33491 c 0.616697,1.32347 1.808514,2.67466 1.108667,4.21294 -0.873076,2.41828 -1.41355,4.93357 -0.679059,7.47658 -0.990871,-1.34426 -2.529147,-2.8271 -1.92631,-4.67719 0.699847,-2.29356 1.392765,-4.60098 1.496702,-7.01233 z"
       id="path3930"
       style="fill:#666666"
       inkscape:connector-curvature="0" />
    <path
       d="m 43.397961,166.00298 c -0.408821,-1.28883 0.817643,-2.16191 1.995601,-2.03718 6.506495,-0.097 13.012989,0.0208 19.519484,-0.0485 1.143314,0.0831 2.480644,-0.18016 3.395295,0.69292 0.124725,0.87307 0.221734,1.74615 0.270238,2.62615 1.600639,0.13859 3.984275,-0.39496 4.663334,1.55214 0.228662,2.45985 -0.200947,4.989 -0.949298,7.33106 -0.949296,2.03025 -3.464586,1.67686 -5.307746,1.82931 -0.429608,1.78772 -0.1663,4.04663 -1.392764,5.45325 -3.208208,0.71371 -6.575786,-0.0416 -9.839427,0.37418 -2.51529,1.85702 -4.462388,4.37231 -6.783661,6.45799 0.04157,-2.12033 0.09007,-4.24065 0.117801,-6.36098 -1.330401,-0.27024 -3.533878,0.007 -3.540808,-1.95403 -0.810713,-5.28696 -1.531347,-10.60163 -2.148043,-15.91631 z"
       id="path3932"
       style="fill:#666666"
       inkscape:connector-curvature="0" />
    <path
       d="m 25.4514,164.38848 c 1.233393,2.39749 -0.256379,4.989 -0.08315,7.50429 -1.84316,-2.30741 -0.360317,-5.01672 0.08315,-7.50429 z"
       id="path3934"
       style="fill:#666666"
       inkscape:connector-curvature="0" />
    <path
       d="m 30.73836,165.76738 c -0.117801,-0.54047 -0.138584,-1.09481 -0.09007,-1.64221 2.161901,2.25198 -0.06929,5.19688 0.353388,7.85075 -1.462056,-1.91938 -0.769138,-4.11593 -0.263309,-6.20854 z"
       id="path3936"
       style="fill:#666666"
       inkscape:connector-curvature="0" />
    <path
       d="m 67.241248,175.70382 c 0.297955,-2.07182 0.415751,-4.17829 0.963155,-6.19468 0.997802,-0.0762 1.995602,-0.11087 3.000333,-0.1178 -0.200947,2.06489 -0.491972,4.12979 -0.84536,6.17389 -1.039377,0.0554 -2.078752,0.097 -3.118128,0.13859 z"
       id="path3938"
       style="fill:#666666"
       inkscape:connector-curvature="0" />
    <path
       d="m 20.018928,173.03609 c 6.146178,-0.0208 12.299284,-0.0762 18.45239,0.0416 -0.242521,4.78113 -1.00473,9.52761 -1.822372,14.24638 -0.914652,0.0693 -1.836232,0.13858 -2.750883,0.2148 0.0485,1.54521 0.09007,3.09042 0.138583,4.63562 -1.718434,-1.5452 -3.208206,-3.42301 -5.231526,-4.58018 -2.321273,-0.48504 -4.725696,-0.17323 -7.081615,-0.20788 -0.263308,-1.37197 -0.512759,-2.75088 -0.762209,-4.12286 -1.42741,-0.22173 -3.526949,0.10394 -4.053567,-1.66993 -0.374176,-1.80851 -1.080951,-3.83876 -0.249451,-5.61263 1.039377,-0.42961 2.168832,-0.51969 3.263641,-0.70677 0.02772,-0.74143 0.06236,-1.48978 0.09701,-2.23813 z"
       id="path3940"
       style="fill:#666666"
       inkscape:connector-curvature="0" />
    <path
       d="m 17.90553,177.38068 c 0.533547,-0.19402 1.600639,-0.57512 2.134186,-0.76914 0.277166,1.71844 0.547405,3.42994 0.817642,5.15531 -0.886934,-0.0901 -1.773868,-0.18016 -2.653873,-0.27024 -0.124726,-1.37198 -0.318743,-2.73702 -0.297955,-4.11593 z"
       id="path3942"
       style="fill:#666666"
       inkscape:connector-curvature="0" />
    <text
       xml:space="preserve"
       style="font-style:normal;font-variant:normal;font-weight:bold;font-stretch:normal;font-size:17.3229351px;line-height:100%;font-family:Noteworthy;-inkscape-font-specification:'Noteworthy, Bold';text-align:center;letter-spacing:0px;word-spacing:0px;writing-mode:lr-tb;text-anchor:middle;fill:#666666;fill-opacity:1;stroke:none;stroke-width:1px;stroke-linecap:butt;stroke-linejoin:miter;stroke-opacity:1"
       x="48.768124"
       y="210.88972"
       id="text3944"
       sodipodi:linespacing="100%"><tspan
         sodipodi:role="line"
         id="tspan3946"
         x="48.768124"
         y="210.88972">tràđáhacking</tspan></text>
  </g>
</svg>
