<?xml version="1.0" encoding="UTF-8" standalone="no"?>
<svg
   xmlns:dc="http://purl.org/dc/elements/1.1/"
   xmlns:cc="http://creativecommons.org/ns#"
   xmlns:rdf="http://www.w3.org/1999/02/22-rdf-syntax-ns#"
   xmlns:svg="http://www.w3.org/2000/svg"
   xmlns="http://www.w3.org/2000/svg"
   xmlns:sodipodi="http://sodipodi.sourceforge.net/DTD/sodipodi-0.dtd"
   xmlns:inkscape="http://www.inkscape.org/namespaces/inkscape"
   width="90"
   height="196"
   viewBox="0 0 72 156.8"
   version="1.1"
   id="svg3444"
   inkscape:version="0.91 r13725"
   sodipodi:docname="trada-logo-long2.svg">
  <metadata
     id="metadata3512">
    <rdf:RDF>
      <cc:Work
         rdf:about="">
        <dc:format>image/svg+xml</dc:format>
        <dc:type
           rdf:resource="http://purl.org/dc/dcmitype/StillImage" />
        <dc:title></dc:title>
      </cc:Work>
    </rdf:RDF>
  </metadata>
  <defs
     id="defs3510" />
  <sodipodi:namedview
     pagecolor="#ffffff"
     bordercolor="#666666"
     borderopacity="1"
     objecttolerance="10"
     gridtolerance="10"
     guidetolerance="10"
     inkscape:pageopacity="0.63137255"
     inkscape:pageshadow="2"
     inkscape:window-width="1079"
     inkscape:window-height="720"
     id="namedview3508"
     showgrid="false"
     fit-margin-top="0"
     fit-margin-left="0"
     fit-margin-right="0"
     fit-margin-bottom="0"
     units="px"
     inkscape:zoom="1.0074671"
     inkscape:cx="-89.487708"
     inkscape:cy="41.670218"
     inkscape:window-x="180"
     inkscape:window-y="0"
     inkscape:window-maximized="0"
     inkscape:current-layer="svg3444" />
  <path
     d="M 41.741571,-2.4017506e-6 C 42.373702,1.0282008 43.427252,1.9601713 43.427252,3.2517592 43.550595,5.5816817 41.777546,7.5266585 41.839217,9.8464496 41.972838,10.986083 42.363423,12.070008 42.707754,13.158992 40.955263,11.791426 39.572798,9.5678753 40.47731,7.3240543 41.402379,4.9890661 42.281194,2.5578452 41.741571,-2.4017506e-6 Z"
     id="path3448"
     style="fill:#008000"
     inkscape:connector-curvature="0" />
  <path
     d="m 43.853812,9.8920332 c 0.488231,-1.7170516 1.027854,-3.4290376 1.068969,-5.2321906 0.385445,1.0282032 1.223146,2.1121213 0.657827,3.2365646 -0.70922,1.6360085 -0.945627,3.3885198 -0.334053,5.0954398 -0.616713,-0.93197 -1.752492,-1.863941 -1.392743,-3.0998138 z"
     id="path3450"
     style="fill:#008000"
     inkscape:connector-curvature="0" />
  <path
     d="m 38.313677,4.7206231 c 0.452256,0.9927437 1.218008,2.0766691 0.652687,3.1909811 -0.673245,1.6309428 -0.945625,3.3631918 -0.457395,5.0954328 -0.49337,-0.835731 -1.192311,-1.620812 -1.356768,-2.603431 0.385446,-1.8993935 1.187172,-3.7076196 1.161476,-5.6829829 z"
     id="path3452"
     style="fill:#008000"
     inkscape:connector-curvature="0" />
  <path
     d="m 21.143368,11.310248 c 0.457396,0.967423 1.34135,1.955108 0.822283,3.079551 -0.647548,1.767701 -1.04841,3.606314 -0.503648,5.465189 -0.734916,-0.98262 -1.875834,-2.066538 -1.428718,-3.418906 0.519067,-1.676534 1.032995,-3.363199 1.110083,-5.125834 z"
     id="path3454"
     style="fill:#d45500"
     inkscape:connector-curvature="0" />
  <path
     d="m 32.187664,15.453462 c -0.303216,-0.942102 0.606435,-1.580301 1.48011,-1.489126 4.825777,-0.0709 9.651553,0.0152 14.47733,-0.03545 0.84798,0.06074 1.83986,-0.131692 2.518243,0.506507 0.09251,0.638192 0.164458,1.276391 0.200432,1.919649 1.187172,0.101305 2.955082,-0.288706 3.45873,1.134574 0.169596,1.798088 -0.149039,3.646832 -0.704081,5.358818 -0.704079,1.48406 -2.569635,1.225741 -3.936681,1.337178 -0.318635,1.306778 -0.123343,2.957983 -1.032994,3.986187 -2.379483,0.521703 -4.877169,-0.03041 -7.297766,0.273516 -1.865556,1.357434 -3.309692,3.196046 -5.031348,4.720625 0.03083,-1.549907 0.0668,-3.099807 0.08737,-4.649714 -0.98674,-0.197538 -2.621029,0.0051 -2.626168,-1.428346 -0.601295,-3.864632 -1.135779,-7.74952 -1.593174,-11.634415 z"
     id="path3456"
     style="fill:#008000"
     inkscape:connector-curvature="0" />
  <path
     d="m 18.876949,14.273304 c 0.914791,1.752504 -0.190153,3.646831 -0.06167,5.485444 -1.367046,-1.686658 -0.267242,-3.667094 0.06167,-5.485444 z"
     id="path3458"
     style="fill:#d45500"
     inkscape:connector-curvature="0" />
  <path
     d="m 22.798214,15.281244 c -0.08737,-0.395069 -0.102786,-0.800278 -0.0668,-1.200413 1.603452,1.64614 -0.05139,3.798786 0.262103,5.738697 -1.084386,-1.403017 -0.570459,-3.008639 -0.195292,-4.538284 z"
     id="path3460"
     style="fill:#d45500"
     inkscape:connector-curvature="0" />
  <path
     d="m 49.871899,22.544528 c 0.220989,-1.514448 0.308357,-3.054223 0.714359,-4.528153 0.740056,-0.0557 1.48011,-0.08104 2.225305,-0.08611 -0.149039,1.509381 -0.364888,3.01877 -0.626991,4.512955 -0.770892,0.0405 -1.541782,0.0709 -2.312673,0.101306 z"
     id="path3462"
     style="fill:#008000"
     inkscape:connector-curvature="0" />
  <path
     d="m 14.84776,20.594486 c 4.558535,-0.0152 9.122208,-0.0557 13.685882,0.03041 -0.179875,3.494884 -0.745195,6.964439 -1.351628,10.413739 -0.678385,0.05066 -1.361908,0.101299 -2.040292,0.157014 0.03597,1.129509 0.0668,2.259018 0.102785,3.388519 -1.274539,-1.129501 -2.379482,-2.502132 -3.88015,-3.347994 -1.721656,-0.354552 -3.504983,-0.126627 -5.252336,-0.151955 -0.195292,-1.002875 -0.380306,-2.010823 -0.56532,-3.013705 -1.05869,-0.162079 -2.615889,0.07598 -3.006474,-1.220676 -0.277521,-1.321975 -0.801726,-2.806036 -0.185014,-4.102689 0.770891,-0.314034 1.608592,-0.37988 2.420597,-0.516631 0.02056,-0.541966 0.04625,-1.088991 0.07195,-1.636016 z"
     id="path3464"
     style="fill:#d45500"
     inkscape:connector-curvature="0" />
  <path
     d="m 13.280282,23.77027 c 0.395725,-0.141824 1.187172,-0.420398 1.582896,-0.562222 0.20557,1.256136 0.406003,2.507198 0.606434,3.7684 -0.657827,-0.06586 -1.315653,-0.131693 -1.968341,-0.197539 -0.09251,-1.002882 -0.236407,-2.000691 -0.220989,-3.008639 z"
     id="path3466"
     style="fill:#d45500"
     inkscape:connector-curvature="0" />
  <text
     xml:space="preserve"
     style="font-style:normal;font-variant:normal;font-weight:bold;font-stretch:normal;font-size:12.75506401px;line-height:100%;font-family:Noteworthy;-inkscape-font-specification:'Noteworthy, Bold';text-align:center;letter-spacing:0px;word-spacing:0px;writing-mode:lr-tb;text-anchor:middle;fill:#008000;fill-opacity:1;stroke:none;stroke-width:1px;stroke-linecap:butt;stroke-linejoin:miter;stroke-opacity:1"
     x="35.908493"
     y="48.616871"
     id="text3514"
     sodipodi:linespacing="100%"
     transform="scale(1.0073004,0.99275256)"><tspan
       sodipodi:role="line"
       id="tspan3518"
       x="35.908493"
       y="48.616871">tràđáhacking</tspan></text>
  <path
     inkscape:connector-curvature="0"
     style="fill:#ffe6d5"
     id="path3886"
     d="m 41.741571,104.8 c 0.632131,1.0282 1.685681,1.96017 1.685681,3.25176 0.123343,2.32992 -1.649706,4.2749 -1.588035,6.59469 0.133621,1.13963 0.524206,2.22356 0.868537,3.31254 -1.752491,-1.36756 -3.134956,-3.59111 -2.230444,-5.83493 0.925069,-2.33499 1.803884,-4.76621 1.264261,-7.32406 z" />
  <path
     inkscape:connector-curvature="0"
     style="fill:#ffe6d5"
     id="path3888"
     d="m 43.853812,114.69204 c 0.488231,-1.71706 1.027854,-3.42904 1.068969,-5.2322 0.385445,1.02821 1.223146,2.11213 0.657827,3.23657 -0.70922,1.63601 -0.945627,3.38852 -0.334053,5.09544 -0.616713,-0.93197 -1.752492,-1.86394 -1.392743,-3.09981 z" />
  <path
     inkscape:connector-curvature="0"
     style="fill:#ffe6d5"
     id="path3890"
     d="m 38.313677,109.52063 c 0.452256,0.99274 1.218008,2.07666 0.652687,3.19098 -0.673245,1.63094 -0.945625,3.36319 -0.457395,5.09543 -0.49337,-0.83573 -1.192311,-1.62081 -1.356768,-2.60343 0.385446,-1.8994 1.187172,-3.70762 1.161476,-5.68298 z" />
  <path
     inkscape:connector-curvature="0"
     style="fill:#ffffff"
     id="path3892"
     d="m 21.143368,116.11025 c 0.457396,0.96742 1.34135,1.95511 0.822283,3.07955 -0.647548,1.7677 -1.04841,3.60631 -0.503648,5.46519 -0.734916,-0.98262 -1.875834,-2.06654 -1.428718,-3.41891 0.519067,-1.67653 1.032995,-3.36319 1.110083,-5.12583 z" />
  <path
     inkscape:connector-curvature="0"
     style="fill:#ffe6d5"
     id="path3894"
     d="m 32.187664,120.25346 c -0.303216,-0.9421 0.606435,-1.5803 1.48011,-1.48912 4.825777,-0.0709 9.651553,0.0152 14.47733,-0.0354 0.84798,0.0607 1.83986,-0.1317 2.518243,0.5065 0.09251,0.63819 0.164458,1.27639 0.200432,1.91965 1.187172,0.10131 2.955082,-0.2887 3.45873,1.13458 0.169596,1.79808 -0.149039,3.64683 -0.704081,5.35881 -0.704079,1.48406 -2.569635,1.22574 -3.936681,1.33718 -0.318635,1.30678 -0.123343,2.95798 -1.032994,3.98619 -2.379483,0.5217 -4.877169,-0.0304 -7.297766,0.27351 -1.865556,1.35744 -3.309692,3.19605 -5.031348,4.72063 0.03083,-1.54991 0.0668,-3.09981 0.08737,-4.64971 -0.98674,-0.19754 -2.621029,0.005 -2.626168,-1.42835 -0.601295,-3.86463 -1.135779,-7.74952 -1.593174,-11.63442 z" />
  <path
     inkscape:connector-curvature="0"
     style="fill:#ffffff"
     id="path3896"
     d="m 18.876949,119.07331 c 0.914791,1.7525 -0.190153,3.64683 -0.06167,5.48544 -1.367046,-1.68666 -0.267242,-3.66709 0.06167,-5.48544 z" />
  <path
     inkscape:connector-curvature="0"
     style="fill:#ffffff"
     id="path3898"
     d="m 22.798214,120.08125 c -0.08737,-0.39507 -0.102786,-0.80028 -0.0668,-1.20042 1.603452,1.64614 -0.05139,3.79879 0.262103,5.7387 -1.084386,-1.40302 -0.570459,-3.00864 -0.195292,-4.53828 z" />
  <path
     inkscape:connector-curvature="0"
     style="fill:#ffe6d5"
     id="path3900"
     d="m 49.871899,127.34453 c 0.220989,-1.51445 0.308357,-3.05422 0.714359,-4.52815 0.740056,-0.0557 1.48011,-0.081 2.225305,-0.0861 -0.149039,1.50938 -0.364888,3.01877 -0.626991,4.51295 -0.770892,0.0405 -1.541782,0.0709 -2.312673,0.10131 z" />
  <path
     inkscape:connector-curvature="0"
     style="fill:#ffffff"
     id="path3902"
     d="m 14.84776,125.39449 c 4.558535,-0.0152 9.122208,-0.0557 13.685882,0.0304 -0.179875,3.49488 -0.745195,6.96444 -1.351628,10.41374 -0.678385,0.0506 -1.361908,0.10129 -2.040292,0.15701 0.03597,1.12951 0.0668,2.25902 0.102785,3.38852 -1.274539,-1.1295 -2.379482,-2.50213 -3.88015,-3.348 -1.721656,-0.35455 -3.504983,-0.12662 -5.252336,-0.15195 -0.195292,-1.00288 -0.380306,-2.01082 -0.56532,-3.01371 -1.05869,-0.16207 -2.615889,0.076 -3.006474,-1.22067 -0.277521,-1.32198 -0.801726,-2.80604 -0.185014,-4.10269 0.770891,-0.31404 1.608592,-0.37988 2.420597,-0.51663 0.02056,-0.54197 0.04625,-1.08899 0.07195,-1.63602 z" />
  <path
     inkscape:connector-curvature="0"
     style="fill:#ffffff"
     id="path3904"
     d="m 13.280282,128.57027 c 0.395725,-0.14182 1.187172,-0.4204 1.582896,-0.56222 0.20557,1.25614 0.406003,2.5072 0.606434,3.7684 -0.657827,-0.0659 -1.315653,-0.13169 -1.968341,-0.19754 -0.09251,-1.00288 -0.236407,-2.00069 -0.220989,-3.00864 z" />
  <text
     sodipodi:linespacing="100%"
     id="text3906"
     y="154.18195"
     x="35.908493"
     style="font-style:normal;font-variant:normal;font-weight:bold;font-stretch:normal;font-size:12.75506401px;line-height:100%;font-family:Noteworthy;-inkscape-font-specification:'Noteworthy, Bold';text-align:center;letter-spacing:0px;word-spacing:0px;writing-mode:lr-tb;text-anchor:middle;fill:#ffffff;fill-opacity:1;stroke:none;stroke-width:1px;stroke-linecap:butt;stroke-linejoin:miter;stroke-opacity:1"
     xml:space="preserve"
     transform="scale(1.0073004,0.99275256)"><tspan
       y="154.18195"
       x="35.908493"
       id="tspan3908"
       sodipodi:role="line">tràđáhacking</tspan></text>
  <path
     inkscape:connector-curvature="0"
     style="fill:#a05a2c"
     id="path3924"
     d="m 41.741571,52 c 0.632131,1.028203 1.685681,1.960173 1.685681,3.251761 0.123343,2.329923 -1.649706,4.274899 -1.588035,6.594691 0.133621,1.139633 0.524206,2.223558 0.868537,3.312542 C 40.955263,63.791428 39.572798,61.567877 40.47731,59.324056 41.402379,56.989068 42.281194,54.557847 41.741571,52 Z" />
  <path
     inkscape:connector-curvature="0"
     style="fill:#a05a2c"
     id="path3926"
     d="m 43.853812,61.892035 c 0.488231,-1.717051 1.027854,-3.429037 1.068969,-5.23219 0.385445,1.028203 1.223146,2.112121 0.657827,3.236564 -0.70922,1.636009 -0.945627,3.38852 -0.334053,5.09544 -0.616713,-0.93197 -1.752492,-1.863941 -1.392743,-3.099814 z" />
  <path
     inkscape:connector-curvature="0"
     style="fill:#a05a2c"
     id="path3928"
     d="m 38.313677,56.720625 c 0.452256,0.992744 1.218008,2.076669 0.652687,3.190981 -0.673245,1.630943 -0.945625,3.363192 -0.457395,5.095433 -0.49337,-0.835731 -1.192311,-1.620812 -1.356768,-2.603431 0.385446,-1.899394 1.187172,-3.70762 1.161476,-5.682983 z" />
  <path
     inkscape:connector-curvature="0"
     style="fill:#666666"
     id="path3930"
     d="m 21.143368,63.31025 c 0.457396,0.967423 1.34135,1.955108 0.822283,3.079551 -0.647548,1.767701 -1.04841,3.606314 -0.503648,5.465189 -0.734916,-0.98262 -1.875834,-2.066538 -1.428718,-3.418906 0.519067,-1.676534 1.032995,-3.363199 1.110083,-5.125834 z" />
  <path
     inkscape:connector-curvature="0"
     style="fill:#a05a2c"
     id="path3932"
     d="m 32.187664,67.453464 c -0.303216,-0.942102 0.606435,-1.580301 1.48011,-1.489126 4.825777,-0.0709 9.651553,0.0152 14.47733,-0.03545 0.84798,0.06074 1.83986,-0.131692 2.518243,0.506507 0.09251,0.638192 0.164458,1.276391 0.200432,1.919649 1.187172,0.101305 2.955082,-0.288706 3.45873,1.134574 0.169596,1.798088 -0.149039,3.646832 -0.704081,5.358818 -0.704079,1.48406 -2.569635,1.225741 -3.936681,1.337178 -0.318635,1.306778 -0.123343,2.957983 -1.032994,3.986187 -2.379483,0.521703 -4.877169,-0.03041 -7.297766,0.273516 -1.865556,1.357434 -3.309692,3.196046 -5.031348,4.720625 0.03083,-1.549907 0.0668,-3.099807 0.08737,-4.649714 -0.98674,-0.197538 -2.621029,0.0051 -2.626168,-1.428346 -0.601295,-3.864632 -1.135779,-7.74952 -1.593174,-11.634415 z" />
  <path
     inkscape:connector-curvature="0"
     style="fill:#666666"
     id="path3934"
     d="m 18.876949,66.273306 c 0.914791,1.752504 -0.190153,3.646831 -0.06167,5.485444 -1.367046,-1.686658 -0.267242,-3.667094 0.06167,-5.485444 z" />
  <path
     inkscape:connector-curvature="0"
     style="fill:#666666"
     id="path3936"
     d="m 22.798214,67.281246 c -0.08737,-0.395069 -0.102786,-0.800278 -0.0668,-1.200413 1.603452,1.64614 -0.05139,3.798786 0.262103,5.738697 -1.084386,-1.403017 -0.570459,-3.008639 -0.195292,-4.538284 z" />
  <path
     inkscape:connector-curvature="0"
     style="fill:#a05a2c"
     id="path3938"
     d="m 49.871899,74.54453 c 0.220989,-1.514448 0.308357,-3.054223 0.714359,-4.528153 0.740056,-0.0557 1.48011,-0.08104 2.225305,-0.08611 -0.149039,1.509381 -0.364888,3.01877 -0.626991,4.512955 -0.770892,0.0405 -1.541782,0.0709 -2.312673,0.101306 z" />
  <path
     inkscape:connector-curvature="0"
     style="fill:#666666"
     id="path3940"
     d="m 14.84776,72.594488 c 4.558535,-0.0152 9.122208,-0.0557 13.685882,0.03041 -0.179875,3.494884 -0.745195,6.964439 -1.351628,10.413739 -0.678385,0.05066 -1.361908,0.101299 -2.040292,0.157014 0.03597,1.129509 0.0668,2.259018 0.102785,3.388519 -1.274539,-1.129501 -2.379482,-2.502132 -3.88015,-3.347994 -1.721656,-0.354552 -3.504983,-0.126627 -5.252336,-0.151955 -0.195292,-1.002875 -0.380306,-2.010823 -0.56532,-3.013705 -1.05869,-0.162079 -2.615889,0.07598 -3.006474,-1.220676 -0.277521,-1.321975 -0.801726,-2.806036 -0.185014,-4.102689 0.770891,-0.314034 1.608592,-0.37988 2.420597,-0.516631 0.02056,-0.541966 0.04625,-1.088991 0.07195,-1.636016 z" />
  <path
     inkscape:connector-curvature="0"
     style="fill:#666666"
     id="path3942"
     d="m 13.280282,75.770272 c 0.395725,-0.141824 1.187172,-0.420398 1.582896,-0.562222 0.20557,1.256136 0.406003,2.507198 0.606434,3.7684 -0.657827,-0.06586 -1.315653,-0.131693 -1.968341,-0.197539 -0.09251,-1.002882 -0.236407,-2.000691 -0.220989,-3.008639 z" />
  <text
     sodipodi:linespacing="100%"
     id="text3944"
     y="100.99649"
     x="35.908493"
     style="font-style:normal;font-variant:normal;font-weight:bold;font-stretch:normal;font-size:12.75506401px;line-height:100%;font-family:Noteworthy;-inkscape-font-specification:'Noteworthy, Bold';text-align:center;letter-spacing:0px;word-spacing:0px;writing-mode:lr-tb;text-anchor:middle;fill:#666666;fill-opacity:1;stroke:none;stroke-width:1px;stroke-linecap:butt;stroke-linejoin:miter;stroke-opacity:1"
     xml:space="preserve"
     transform="scale(1.0073004,0.99275256)"><tspan
       y="100.99649"
       x="35.908493"
       id="tspan3946"
       sodipodi:role="line">tràđáhacking</tspan></text>
</svg>
