<?xml version="1.0" encoding="UTF-8" ?>
<!DOCTYPE svg PUBLIC "-//W3C//DTD SVG 1.1//EN" "http://www.w3.org/Graphics/SVG/1.1/DTD/svg11.dtd">
<svg width="220pt" height="169pt" viewBox="0 0 220 169" version="1.1" xmlns="http://www.w3.org/2000/svg">
<path fill="#ffffff" d=" M 0.00 0.00 L 220.00 0.00 L 220.00 169.00 L 0.00 169.00 L 0.00 0.00 Z" />
<path fill="#825f34" d=" M 126.60 19.52 C 127.83 21.55 129.88 23.39 129.88 25.94 C 130.12 30.54 126.67 34.38 126.79 38.96 C 127.05 41.21 127.81 43.35 128.48 45.50 C 125.07 42.80 122.38 38.41 124.14 33.98 C 125.94 29.37 127.65 24.57 126.60 19.52 Z" />
<path fill="#825f34" d=" M 130.71 39.05 C 131.66 35.66 132.71 32.28 132.79 28.72 C 133.54 30.75 135.17 32.89 134.07 35.11 C 132.69 38.34 132.23 41.80 133.42 45.17 C 132.22 43.33 130.01 41.49 130.71 39.05 Z" />
<path fill="#825f34" d=" M 119.93 28.84 C 120.81 30.80 122.30 32.94 121.20 35.14 C 119.89 38.36 119.36 41.78 120.31 45.20 C 119.35 43.55 117.99 42.00 117.67 40.06 C 118.42 36.31 119.98 32.74 119.93 28.84 Z" />
<path fill="#825f34" d=" M 86.52 41.85 C 87.41 43.76 89.13 45.71 88.12 47.93 C 86.86 51.42 86.08 55.05 87.14 58.72 C 85.71 56.78 83.49 54.64 84.36 51.97 C 85.37 48.66 86.37 45.33 86.52 41.85 Z" />
<path fill="#825f34" d=" M 108.01 50.03 C 107.42 48.17 109.19 46.91 110.89 47.09 C 120.28 46.95 129.67 47.12 139.06 47.02 C 140.71 47.14 142.64 46.76 143.96 48.02 C 144.14 49.28 144.28 50.54 144.35 51.81 C 146.66 52.01 150.10 51.24 151.08 54.05 C 151.41 57.60 150.79 61.25 149.71 64.63 C 148.34 67.56 144.71 67.05 142.05 67.27 C 141.43 69.85 141.81 73.11 140.04 75.14 C 135.41 76.17 130.55 75.08 125.84 75.68 C 122.21 78.36 119.40 81.99 116.05 85.00 C 116.11 81.94 116.18 78.88 116.22 75.82 C 114.30 75.43 111.12 75.83 111.11 73.00 C 109.94 65.37 108.90 57.70 108.01 50.03 Z" />
<path fill="#825f34" d=" M 82.11 47.70 C 83.89 51.16 81.74 54.90 81.99 58.53 C 79.33 55.20 81.47 51.29 82.11 47.70 Z" />
<path fill="#825f34" d=" M 89.74 49.69 C 89.57 48.91 89.54 48.11 89.61 47.32 C 92.73 50.57 89.51 54.82 90.12 58.65 C 88.01 55.88 89.01 52.71 89.74 49.69 Z" />
<path fill="#ffffff" d=" M 142.42 64.03 C 142.85 61.04 143.02 58.00 143.81 55.09 C 145.25 54.98 146.69 54.93 148.14 54.92 C 147.85 57.90 147.43 60.88 146.92 63.83 C 145.42 63.91 143.92 63.97 142.42 64.03 Z" />
<path fill="#825f34" d=" M 74.27 60.18 C 83.14 60.15 92.02 60.07 100.90 60.24 C 100.55 67.14 99.45 73.99 98.27 80.80 C 96.95 80.90 95.62 81.00 94.30 81.11 C 94.37 83.34 94.43 85.57 94.50 87.80 C 92.02 85.57 89.87 82.86 86.95 81.19 C 83.60 80.49 80.13 80.94 76.73 80.89 C 76.35 78.91 75.99 76.92 75.63 74.94 C 73.57 74.62 70.54 75.09 69.78 72.53 C 69.24 69.92 68.22 66.99 69.42 64.43 C 70.92 63.81 72.55 63.68 74.13 63.41 C 74.17 62.34 74.22 61.26 74.27 60.18 Z" />
<path fill="#ffffff" d=" M 71.22 66.45 C 71.99 66.17 73.53 65.62 74.30 65.34 C 74.70 67.82 75.09 70.29 75.48 72.78 C 74.20 72.65 72.92 72.52 71.65 72.39 C 71.47 70.41 71.19 68.44 71.22 66.45 Z" />
<path fill="#825f34" d=" M 61.11 103.05 C 62.02 103.06 63.84 103.09 64.74 103.10 C 65.02 104.27 65.28 105.45 65.53 106.63 C 63.97 105.55 62.51 104.33 61.11 103.05 Z" />
<path fill="#825f34" d=" M 79.30 104.45 C 80.01 103.78 80.74 103.12 81.48 102.47 C 82.06 103.83 84.00 105.16 82.41 106.77 C 81.52 111.22 82.23 115.85 82.00 120.37 C 81.37 120.11 80.13 119.59 79.51 119.33 C 77.88 119.66 76.08 120.51 74.51 119.55 C 70.51 117.35 70.36 110.51 74.17 108.06 C 76.04 106.87 78.14 107.91 80.01 108.46 C 80.00 107.84 79.98 106.61 79.97 106.00 C 79.08 106.00 77.31 106.00 76.43 106.00 L 76.52 104.46 C 77.22 104.46 78.60 104.45 79.30 104.45 Z" />
<path fill="#825f34" d=" M 90.48 103.29 C 93.44 101.42 92.75 105.56 90.48 105.91 C 88.37 106.72 89.29 103.70 90.48 103.29 Z" />
<path fill="#825f34" d=" M 98.00 103.00 C 98.50 103.00 99.51 103.00 100.01 103.00 C 100.00 104.89 100.00 106.77 100.00 108.67 C 102.33 107.54 105.95 106.58 107.54 109.34 C 108.49 112.79 107.85 116.46 108.00 120.00 C 107.50 120.00 106.50 120.00 106.00 120.00 C 105.89 116.78 106.29 113.51 105.66 110.33 C 104.51 108.05 100.88 108.93 100.31 111.20 C 99.77 114.10 100.08 117.07 100.00 120.00 C 99.50 120.00 98.50 120.00 98.00 120.00 C 98.00 114.33 98.00 108.67 98.00 103.00 Z" />
<path fill="#825f34" d=" M 135.44 103.03 C 135.96 103.01 137.01 102.97 137.54 102.96 C 137.54 106.09 137.54 109.22 137.56 112.36 C 140.01 110.33 142.27 107.54 145.79 107.70 C 144.10 109.36 142.32 110.93 140.55 112.49 C 142.41 115.02 144.27 117.55 146.11 120.09 C 145.44 120.04 144.11 119.92 143.44 119.87 C 142.00 117.77 140.59 115.64 138.87 113.76 C 136.91 115.25 137.72 117.89 137.47 120.00 C 136.96 120.00 135.95 120.00 135.44 120.00 C 135.46 114.34 135.47 108.69 135.44 103.03 Z" />
<path fill="#825f34" d=" M 147.35 103.02 C 147.94 103.04 149.11 103.07 149.70 103.08 C 149.63 103.70 149.50 104.94 149.43 105.57 C 148.96 105.56 148.01 105.55 147.54 105.54 C 147.49 104.91 147.40 103.65 147.35 103.02 Z" />
<path fill="#825f34" d=" M 45.15 107.91 C 45.37 106.13 45.84 104.37 47.41 103.30 C 47.47 104.75 47.52 106.20 47.55 107.66 C 48.18 107.90 49.44 108.40 50.07 108.65 C 45.88 109.89 48.03 114.86 47.59 118.04 C 48.39 118.35 49.98 118.98 50.78 119.29 C 49.19 119.78 46.95 120.82 45.81 118.97 C 45.22 116.23 45.48 113.41 45.46 110.63 C 44.83 109.79 44.20 108.95 43.58 108.10 L 45.15 107.91 Z" />
<path fill="#825f34" d=" M 51.39 108.16 C 53.81 107.92 56.27 107.43 58.70 107.91 C 57.75 109.61 55.29 108.78 54.15 110.20 C 53.11 113.35 53.65 116.74 53.54 120.00 C 53.02 120.00 51.97 120.00 51.45 120.00 C 51.46 116.06 51.48 112.11 51.39 108.16 Z" />
<path fill="#825f34" d=" M 167.95 107.91 C 170.42 107.18 173.03 108.05 175.55 108.09 C 175.24 112.92 176.36 118.03 174.66 122.64 C 171.94 125.91 166.03 124.90 165.00 120.60 C 165.46 120.64 166.38 120.74 166.84 120.78 C 168.03 121.84 169.17 123.49 171.02 122.97 C 172.85 122.74 173.15 120.61 174.00 119.32 C 171.91 119.53 169.56 120.67 167.63 119.35 C 163.88 116.86 164.00 110.14 167.95 107.91 Z" />
<path fill="#825f34" d=" M 59.39 112.13 C 58.20 107.11 66.45 105.85 68.65 109.30 C 69.37 112.96 68.90 116.76 69.23 120.48 C 68.54 120.09 67.16 119.32 66.47 118.93 C 64.55 119.54 62.39 120.65 60.41 119.62 C 57.86 118.69 57.78 114.42 60.35 113.48 C 62.67 112.65 65.13 112.36 67.50 111.76 C 66.64 110.91 66.35 109.08 64.90 109.07 C 62.48 108.40 61.15 111.03 59.39 112.13 Z" />
<path fill="#825f34" d=" M 85.38 112.12 C 84.22 107.10 92.46 105.86 94.65 109.30 C 95.37 112.97 94.89 116.78 95.23 120.50 C 94.54 120.10 93.17 119.30 92.48 118.90 C 90.55 119.54 88.36 120.67 86.36 119.60 C 83.82 118.62 83.81 114.33 86.42 113.45 C 88.72 112.65 91.15 112.36 93.50 111.76 C 92.65 110.91 92.37 109.13 90.95 109.08 C 88.50 108.38 87.14 111.02 85.38 112.12 Z" />
<path fill="#825f34" d=" M 111.36 112.12 C 110.23 107.08 118.53 105.82 120.67 109.36 C 121.35 113.02 120.90 116.80 121.23 120.50 C 120.55 120.10 119.18 119.30 118.49 118.90 C 116.57 119.54 114.39 120.66 112.40 119.61 C 109.85 118.67 109.78 114.40 112.37 113.47 C 114.68 112.65 117.13 112.36 119.50 111.76 C 118.64 110.91 118.35 109.09 116.91 109.07 C 114.47 108.40 113.13 111.04 111.36 112.12 Z" />
<path fill="#825f34" d=" M 129.07 120.03 C 122.09 120.73 121.33 108.21 128.03 107.51 C 130.93 106.87 133.11 109.14 133.93 111.69 C 131.54 111.34 129.21 107.61 126.83 109.80 C 124.67 112.21 124.87 118.41 129.00 118.54 C 130.66 118.14 130.99 116.28 131.77 115.04 C 132.30 115.13 133.36 115.30 133.88 115.39 C 132.81 117.35 131.75 120.06 129.07 120.03 Z" />
<path fill="#825f34" d=" M 147.45 107.97 C 147.98 107.98 149.03 108.01 149.56 108.02 C 149.54 112.01 149.54 115.99 149.56 119.98 C 149.03 119.99 147.98 120.01 147.45 120.02 C 147.46 116.01 147.46 111.99 147.45 107.97 Z" />
<path fill="#825f34" d=" M 152.52 108.18 C 153.35 108.18 154.18 108.20 155.01 108.25 C 157.31 107.64 160.40 106.74 162.01 109.17 C 162.99 112.71 162.43 116.44 162.53 120.06 C 162.01 120.03 160.96 119.98 160.44 119.96 C 160.43 117.00 160.65 114.01 160.27 111.07 C 160.15 108.03 155.28 108.61 154.85 111.12 C 154.29 114.04 154.58 117.04 154.54 120.00 C 154.02 120.00 152.98 120.00 152.46 120.00 C 152.49 116.06 152.32 112.12 152.52 108.18 Z" />
<path fill="#ffffff" d=" M 75.41 109.34 C 80.62 107.41 81.89 117.59 77.01 118.56 C 72.79 118.12 72.45 111.46 75.41 109.34 Z" />
<path fill="#ffffff" d=" M 169.20 109.15 C 172.53 108.14 174.00 112.39 173.38 114.98 C 173.46 117.47 170.32 119.70 168.32 117.71 C 166.31 115.33 166.42 110.91 169.20 109.15 Z" />
<path fill="#ffffff" d=" M 61.01 115.18 C 63.01 114.24 65.24 114.03 67.37 113.57 C 66.73 115.39 66.45 118.14 63.99 118.34 C 62.02 119.19 59.42 117.16 61.01 115.18 Z" />
<path fill="#ffffff" d=" M 86.49 116.91 C 86.72 113.61 91.11 114.49 93.37 113.57 C 93.61 117.13 88.74 120.62 86.49 116.91 Z" />
<path fill="#ffffff" d=" M 112.42 116.04 C 114.00 113.91 117.07 114.28 119.37 113.57 C 118.80 114.92 118.72 116.60 117.62 117.68 C 115.86 118.93 112.35 118.85 112.42 116.04 Z" />
</svg>
